<?xml version="1.0" encoding="UTF-8" standalone="no"?>
<svg
   viewBox="0 0 64 64"
   version="1.1"
   id="svg13"
   sodipodi:docname="icon.svg"
   inkscape:version="1.2.1 (9c6d41e, 2022-07-14)"
   xmlns:inkscape="http://www.inkscape.org/namespaces/inkscape"
   xmlns:sodipodi="http://sodipodi.sourceforge.net/DTD/sodipodi-0.dtd"
   xmlns="http://www.w3.org/2000/svg"
   xmlns:svg="http://www.w3.org/2000/svg">
  <defs
     id="defs17" />
  <sodipodi:namedview
     id="namedview15"
     pagecolor="#ffffff"
     bordercolor="#000000"
     borderopacity="0.25"
     inkscape:showpageshadow="2"
     inkscape:pageopacity="0.0"
     inkscape:pagecheckerboard="0"
     inkscape:deskcolor="#d1d1d1"
     showgrid="true"
     inkscape:zoom="8"
     inkscape:cx="33.6875"
     inkscape:cy="25.8125"
     inkscape:window-width="1440"
     inkscape:window-height="847"
     inkscape:window-x="0"
     inkscape:window-y="25"
     inkscape:window-maximized="1"
     inkscape:current-layer="g12708">
    <inkscape:grid
       type="xygrid"
       id="grid2661" />
  </sodipodi:namedview>
  <g
     id="g3600">
    <g
       id="g12701">
      <g
         id="g12708"
         style="fill:#4c9ae8;fill-opacity:1">
        <path
           d="m 12.3638,41.0681 c 0,0 -4.3326,3.4319 -4.6077,12.8619 A 1.9032,1.9032 0 0 0 9.68,55.8808 c 9.1235,-0.17 12.8618,-4.6343 12.8618,-4.6343 a 7.3926,7.3926 0 0 0 0,-10.1784 c -2.8104,-2.8107 -6.9766,-2.6741 -10.178,0 z"
           id="path2"
           style="fill:#4c9ae8;fill-opacity:1;stroke:none;stroke-width:1.5;stroke-dasharray:none;stroke-opacity:1" />
        <path
           d="m 32.5049,44.4262 a 11.424,11.424 0 0 1 2.2751,5.85 34.1291,34.1291 0 0 1 -0.8711,9.8921 1.4354,1.4354 0 0 0 2.0733,1.5869 C 43.676,57.7013 50.029,49.867 45.9756,39.6475 a 32.1494,32.1494 0 0 1 -13.4707,4.7787 z"
           id="path4"
           style="fill:#4c9ae8;fill-opacity:1;stroke:none;stroke-width:1.5;stroke-dasharray:none;stroke-opacity:1" />
        <path
           d="M 13.33,28.8247 A 11.4207,11.4207 0 0 1 19.1852,31.1054 31.9474,31.9474 0 0 1 23.9631,17.63 C 13.741,13.5725 5.9065,19.9291 1.8484,27.6235 a 1.42,1.42 0 0 0 0.1279,1.5332 1.4348,1.4348 0 0 0 1.46,0.539 34.1864,34.1864 0 0 1 9.8937,-0.871 z"
           id="path6"
           style="fill:#4c9ae8;fill-opacity:1;stroke:none;stroke-width:1.5;stroke-dasharray:none;stroke-opacity:1" />
        <path
           d="M 60.4182,5.3488 A 2.5779,2.5779 0 0 0 58.2644,3.1953 32.8033,32.8033 0 0 0 48.7656,3.1562 13.47,13.47 0 0 0 60.4582,14.841 32.8093,32.8093 0 0 0 60.4182,5.3488 Z"
           id="path8"
           style="fill:#4c9ae8;fill-opacity:1;stroke:none;stroke-width:1.5;stroke-dasharray:none;stroke-opacity:1" />
        <path
           d="m 46.1135,3.6481 a 27.7164,27.7164 0 0 0 -12.65,6.7024 C 21.789,21.16 21.831,32.1193 21.831,32.1193 l 9.6629,9.6629 c 0,0 10.96,0.0421 21.7688,-11.6319 A 27.7158,27.7158 0 0 0 59.9663,17.4942 16.1679,16.1679 0 0 1 46.1135,3.6481 Z M 41.6621,27.583 a 5.64,5.64 0 1 1 5.64,-5.64 5.64,5.64 0 0 1 -5.64,5.64 z"
           id="path10"
           style="fill:#4c9ae8;fill-opacity:1;stroke:none;stroke-width:1.5;stroke-dasharray:none;stroke-opacity:1" />
        <path
           d="m 45.985325,12.919434 c 1.110547,-0.171816 1.981839,-1.043229 2.1535,-2.1538 C 48.612647,7.6180338 49.387652,6.281394 48.939759,3.13 42.830045,3.8984817 37.456404,6.4514608 36.692,12.561686 c 3.149277,0.446866 6.147926,0.83114 9.293325,0.357748 z m 1.134268,1.235909 c 1.110547,-0.171816 1.981839,-1.043229 2.1535,-2.1538 0.473822,-3.1476002 1.248827,-4.48424 0.800934,-7.635634 -6.109714,0.7684817 -11.483355,3.3214608 -12.247759,9.431686 3.149277,0.446866 6.147926,0.83114 9.293325,0.357748 z"
           id="path8-1"
           style="fill:#4c9ae8;fill-opacity:1;stroke:none;stroke-width:1.5;stroke-dasharray:none;stroke-opacity:1"
           sodipodi:nodetypes="ccccc" />
        <path
           d="m 52.872225,14.023524 c 1.110547,-0.171816 1.98184,-1.043229 2.153501,-2.1538 C 55.499547,8.7221241 56.274552,7.3854843 55.826659,4.2340903 49.716945,5.002572 44.343304,7.5555511 43.5789,13.665776 c 3.149277,0.446866 6.147926,0.83114 9.293325,0.357748 z m 1.134268,1.235909 c 1.110547,-0.171816 1.981839,-1.043229 2.1535,-2.1538 0.473822,-3.1475999 1.248827,-4.4842397 0.800934,-7.6356337 -6.109713,0.7684817 -11.483355,3.3214608 -12.247759,9.4316857 3.149277,0.446866 6.147926,0.83114 9.293325,0.357748 z"
           id="path8-1-6"
           style="fill:#4c9ae8;fill-opacity:1;stroke:none;stroke-width:1.5;stroke-dasharray:none;stroke-opacity:1"
           sodipodi:nodetypes="ccccc" />
        <path
           d="m 51.210305,10.026322 c -1.110547,0.171816 -1.981839,1.043229 -2.1535,2.1538 -0.473822,3.1476 4.094923,9.20299 4.542816,12.354384 6.109714,-0.768482 8.031255,-10.606075 6.435259,-14.994186 -1.595996,-4.3881111 -5.679176,0.01261 -8.824575,0.486002 z"
           id="path8-1-9"
           style="fill:#4c9ae8;fill-opacity:1;stroke:none;stroke-width:1.5;stroke-dasharray:none;stroke-opacity:1"
           sodipodi:nodetypes="ccczc" />
        <path
           id="path1023"
           style="fill:#4c9ae8;fill-opacity:1;stroke:none;stroke-width:1.5;stroke-dasharray:none;stroke-opacity:1"
           d="M 52.5625 2.8398438 A 32.8033 32.8033 0 0 0 48.939453 3.1367188 C 48.939171 3.1347269 48.939736 3.1328527 48.939453 3.1308594 C 47.241611 3.3444145 45.600648 3.6954451 44.099609 4.2226562 A 27.7164 27.7164 0 0 0 33.462891 10.349609 C 21.788402 21.159099 21.830078 32.119141 21.830078 32.119141 L 31.494141 41.78125 C 31.494141 41.78125 42.454883 41.824379 53.263672 30.150391 A 27.7158 27.7158 0 0 0 59.738281 18.294922 C 60.151113 17.039914 60.406133 15.716361 60.511719 14.439453 A 32.8093 32.8093 0 0 0 60.417969 5.3496094 A 2.5779 2.5779 0 0 0 58.263672 3.1953125 A 32.8033 32.8033 0 0 0 52.5625 2.8398438 z M 41.662109 16.302734 A 5.64 5.64 0 0 1 47.302734 21.943359 A 5.64 5.64 0 0 1 41.662109 27.582031 A 5.64 5.64 0 0 1 41.662109 16.302734 z " />
      </g>
      <ellipse
         style="fill:#f5f5f5;fill-opacity:0.995745;stroke:none;stroke-width:1.35443;stroke-dasharray:none;stroke-opacity:1;paint-order:stroke fill markers"
         id="path3540"
         cx="41.707314"
         cy="21.860384"
         rx="5.8486118"
         ry="5.7527332" />
    </g>
  </g>
</svg>
